<?xml version="1.0" encoding="iso-8859-1"?>
<!-- Generator: Adobe Illustrator 19.0.0, SVG Export Plug-In . SVG Version: 6.00 Build 0)  -->
<svg xmlns="http://www.w3.org/2000/svg" xmlns:xlink="http://www.w3.org/1999/xlink" version="1.1" id="Capa_1" x="0px" y="0px" viewBox="0 0 512.012 512.012" style="enable-background:new 0 0 512.012 512.012;" xml:space="preserve" width="512px" height="512px">
<g>
	<g>
		<g>
			<path d="M128.092,376.235l-24.503,14.811l50.194,27.337L176,396.258l-47.451-20.297     C128.409,376.072,128.256,376.164,128.092,376.235z" fill="#FFFFFF"/>
			<path d="M280.412,391.046l-24.594-14.811c-0.183-0.091-0.274-0.183-0.457-0.274L208,396.258l22.217,22.126L280.412,391.046z" fill="#FFFFFF"/>
			<polygon points="196.572,438.863 208.64,422.681 192,406.04 175.36,422.681 187.429,438.863    " fill="#FFFFFF"/>
			<path d="M26.606,437.218C10.06,447.084-0.053,464.948,0,484.212l0,27.794h139.703l-60.709-106.24L26.606,437.218z" fill="#FFFFFF"/>
			<path d="M509.273,93.493c-11.905-54.596-60.251-93.516-116.13-93.487C335.498-0.022,286.15,41.337,276.104,98.101     c-10.046,56.763,22.108,112.547,76.262,132.306c1.751,0.604,3.258,1.758,4.297,3.291l36.937,52.754l45.623-57.051     c0.939-1.077,2.091-1.949,3.383-2.56C493.424,203.603,521.178,148.09,509.273,93.493z M399.634,198.498     c-3.103,3.165-8.012,3.691-11.715,1.256c-3.703-2.435-5.166-7.151-3.49-11.254c1.676-4.103,6.021-6.446,10.37-5.592     c4.349,0.854,7.486,4.666,7.486,9.099C402.251,194.427,401.304,196.745,399.634,198.498z M402.286,145.561v9.966     c0,5.049-4.093,9.143-9.143,9.143S384,160.576,384,155.526v-18.377c0.015-5.043,4.1-9.128,9.143-9.143     c20.198,0,36.571-16.374,36.571-36.571c0-20.198-16.374-36.571-36.571-36.571s-36.571,16.374-36.571,36.571     c0,5.049-4.093,9.143-9.143,9.143s-9.143-4.093-9.143-9.143c0.019-29.103,22.762-53.126,51.821-54.737     c29.059-1.611,54.318,19.751,57.554,48.674C450.896,114.294,430.982,140.71,402.286,145.561z" fill="#FFFFFF"/>
			<path d="M110.812,273.012c4.099,17.562,11.891,34.049,22.857,48.366c2.232,3.123,3.445,6.859,3.474,10.697v27.611L192,383.183     l54.857-23.497v-27.611c0.026-3.796,1.206-7.495,3.383-10.606c10.988-14.315,18.81-30.801,22.949-48.366     c1.678-8.571,5.844-16.457,11.977-22.674c4.753-4.714,7.42-11.135,7.406-17.829v-20.754     c-23.44-25.299-36.496-58.495-36.571-92.983c0.03-15.617,2.752-31.113,8.046-45.806c-11.936-11.643-27.943-18.17-44.617-18.194     h-54.857c-35.33,0.039-63.961,28.67-64,64v46.72c0.01,6.769-1.588,13.444-4.663,19.474l-1.737,3.657     c-1.788,3.546-2.727,7.458-2.743,11.429V232.6c-0.014,6.694,2.653,13.115,7.406,17.829     C104.948,256.625,109.112,264.476,110.812,273.012z" fill="#FFFFFF"/>
			<path d="M357.303,437.218l-52.297-31.451l-60.709,106.24H384l0-27.794C384.057,464.923,373.901,447.045,357.303,437.218z" fill="#FFFFFF"/>
			<path d="M232.96,437.766c-3.577,1.912-7.981,1.283-10.88-1.554l-0.366-0.457l-10.24,13.714l18.834,50.194l50.194-87.863     L232.96,437.766z" fill="#FFFFFF"/>
			<polygon points="189.166,457.149 168.595,512.006 215.406,512.006 194.835,457.149    " fill="#FFFFFF"/>
			<path d="M162.286,435.755l-0.366,0.457c-2.899,2.837-7.303,3.466-10.88,1.554l-47.543-25.966l50.194,87.863l18.834-50.194     L162.286,435.755z" fill="#FFFFFF"/>
		</g>
	</g>
</g>
<g>
</g>
<g>
</g>
<g>
</g>
<g>
</g>
<g>
</g>
<g>
</g>
<g>
</g>
<g>
</g>
<g>
</g>
<g>
</g>
<g>
</g>
<g>
</g>
<g>
</g>
<g>
</g>
<g>
</g>
</svg>
