<?xml version="1.0" encoding="iso-8859-1"?>
<!-- Generator: Adobe Illustrator 19.0.0, SVG Export Plug-In . SVG Version: 6.00 Build 0)  -->
<svg xmlns="http://www.w3.org/2000/svg" xmlns:xlink="http://www.w3.org/1999/xlink" version="1.1" id="Capa_1" x="0px" y="0px" viewBox="0 0 512 512" style="enable-background:new 0 0 512 512;" xml:space="preserve" width="512px" height="512px">
<g>
	<g>
		<g>
			<path d="M280.412,391.04l-24.594-14.811c-0.183-0.091-0.274-0.183-0.457-0.274L208,396.252l22.217,22.126L280.412,391.04z" fill="#FFFFFF"/>
			<path d="M128.112,376.273l-24.542,14.734l50.23,27.404l22.188-22.185l-47.405-20.316     C128.412,376.016,128.287,376.17,128.112,376.273z" fill="#FFFFFF"/>
			<polygon points="196.572,438.857 208.64,422.711 192,406.071 175.36,422.711 187.429,438.857    " fill="#FFFFFF"/>
			<path d="M26.648,437.188C10.07,447.04-0.064,464.922,0,484.206L0,512h139.675L78.974,405.773L26.648,437.188z" fill="#FFFFFF"/>
			<path d="M110.813,273.022c4.073,17.576,11.867,34.075,22.857,48.384c2.243,3.103,3.458,6.831,3.473,10.661v27.62L192,383.197     l54.857-23.51v-27.62c0.01-3.795,1.204-7.492,3.415-10.576c11.007-14.318,18.816-30.828,22.902-48.42     c1.687-8.561,5.868-16.431,12.018-22.621c4.713-4.75,7.364-11.166,7.38-17.857V211.78     c-34.784-37.229-45.802-90.796-28.535-138.732c-11.936-11.637-27.938-18.162-44.608-18.191h-54.857     c-35.33,0.04-63.96,28.67-64,64v46.719c0.004,6.755-1.579,13.416-4.62,19.447l-1.755,3.688c-1.81,3.538-2.758,7.454-2.768,11.428     v32.455c0.016,6.691,2.667,13.107,7.379,17.857C104.948,256.626,109.125,264.479,110.813,273.022z" fill="#FFFFFF"/>
			<path d="M162.292,435.78l-0.399,0.399c-2.868,2.868-7.282,3.504-10.843,1.563l-47.583-25.959l50.238,87.917l18.834-50.226     L162.292,435.78z" fill="#FFFFFF"/>
			<path d="M357.344,437.183l-52.318-31.41L244.326,512h139.675l0-27.794C384.064,464.918,373.926,447.035,357.344,437.183z" fill="#FFFFFF"/>
			<path d="M232.951,437.741c-3.561,1.942-7.976,1.306-10.843-1.563l-0.399-0.399l-10.247,13.693l18.834,50.226l50.238-87.917     L232.951,437.741z" fill="#FFFFFF"/>
			<polygon points="189.193,457.143 168.622,512 215.379,512 194.807,457.143    " fill="#FFFFFF"/>
			<path d="M393.143,0C327.5,0,274.286,53.214,274.286,118.857S327.5,237.714,393.143,237.714S512,184.5,512,118.857     C511.928,53.244,458.756,0.073,393.143,0z M455.938,59.393L455.938,59.393l-73.143,128c-1.302,2.277-3.517,3.886-6.085,4.42     c-0.61,0.124-1.23,0.187-1.853,0.188c-1.979,0.001-3.904-0.642-5.487-1.83l-36.571-27.429c-2.612-1.96-3.981-5.165-3.589-8.408     c0.391-3.243,2.483-6.03,5.487-7.312c3.004-1.282,6.464-0.865,9.076,1.095l28.286,21.214l68.005-119.009     c2.505-4.384,8.089-5.907,12.473-3.402C456.92,49.425,458.443,55.009,455.938,59.393z" fill="#FFFFFF"/>
		</g>
	</g>
</g>
<g>
</g>
<g>
</g>
<g>
</g>
<g>
</g>
<g>
</g>
<g>
</g>
<g>
</g>
<g>
</g>
<g>
</g>
<g>
</g>
<g>
</g>
<g>
</g>
<g>
</g>
<g>
</g>
<g>
</g>
</svg>
