<?xml version="1.0" encoding="iso-8859-1"?>
<!-- Generator: Adobe Illustrator 19.0.0, SVG Export Plug-In . SVG Version: 6.00 Build 0)  -->
<svg xmlns="http://www.w3.org/2000/svg" xmlns:xlink="http://www.w3.org/1999/xlink" version="1.1" id="Capa_1" x="0px" y="0px" viewBox="0 0 512 512" style="enable-background:new 0 0 512 512;" xml:space="preserve" width="512px" height="512px">
<g>
	<g>
		<path d="M288.014,94.695l8.644-8.644c4.577-4.576,5.705-11.558,2.817-17.337l-30.039-61.08c-5.105-10.179-21.766-10.179-26.871,0    l-30.039,61.08c-2.89,5.779-1.76,12.761,2.817,17.337l8.644,8.644c-59.057,14.472-103.162,68.475-103.162,131.933v5.537    l118.44-47.384c5.324-2.127,10.971-3.227,16.736-3.227c5.765,0,11.411,1.1,16.765,3.256l118.411,47.351v-5.533    C391.177,163.17,347.071,109.166,288.014,94.695z" fill="#000000"/>
	</g>
</g>
<g>
	<g>
		<path d="M411.77,272.757l-150.196-60.078c-3.579-1.438-7.569-1.438-11.148,0l-150.196,60.078    c-5.705,2.288-9.446,7.803-9.446,13.949v30.039c0,6.146,3.74,11.661,9.446,13.949l150.196,60.078    c1.789,0.719,3.682,1.07,5.573,1.07c1.891,0,3.784-0.352,5.573-1.07l150.196-60.078c5.706-2.288,9.447-7.803,9.447-13.949v-30.039    C421.216,280.56,417.476,275.045,411.77,272.757z M210.942,316.745c0,8.302-6.718,15.02-15.02,15.02s-15.02-6.718-15.02-15.02    v-30.039c0-8.302,6.718-15.02,15.02-15.02s15.02,6.718,15.02,15.02V316.745z M271.02,331.765c0,8.302-6.718,15.02-15.02,15.02    s-15.02-6.718-15.02-15.02v-60.078c0-8.302,6.718-15.02,15.02-15.02s15.02,6.718,15.02,15.02V331.765z M331.099,316.745    c0,8.302-6.718,15.02-15.02,15.02c-8.302,0-15.02-6.718-15.02-15.02v-30.039c0-8.302,6.718-15.02,15.02-15.02    c8.302,0,15.02,6.718,15.02,15.02V316.745z" fill="#000000"/>
	</g>
</g>
<g>
	<g>
		<path d="M388.654,488.649l-33.398-50.104c17.17-18.573,28.719-41.586,33.47-66.277L272.737,418.67    c-5.31,2.127-10.956,3.212-16.736,3.212s-11.426-1.085-16.765-3.241l-115.958-46.369c4.748,24.689,16.299,47.701,33.468,66.273    l-33.398,50.104c-3.066,4.606-3.358,10.532-0.748,15.416c2.61,4.884,7.7,7.935,13.245,7.935h240.313    c5.543-0.001,10.633-3.051,13.243-7.935C392.012,499.181,391.719,493.255,388.654,488.649z" fill="#000000"/>
	</g>
</g>
<g>
</g>
<g>
</g>
<g>
</g>
<g>
</g>
<g>
</g>
<g>
</g>
<g>
</g>
<g>
</g>
<g>
</g>
<g>
</g>
<g>
</g>
<g>
</g>
<g>
</g>
<g>
</g>
<g>
</g>
</svg>
