<?xml version="1.0" encoding="iso-8859-1"?>
<!-- Generator: Adobe Illustrator 19.0.0, SVG Export Plug-In . SVG Version: 6.00 Build 0)  -->
<svg xmlns="http://www.w3.org/2000/svg" xmlns:xlink="http://www.w3.org/1999/xlink" version="1.1" id="Capa_1" x="0px" y="0px" viewBox="0 0 512.001 512.001" style="enable-background:new 0 0 512.001 512.001;" xml:space="preserve" width="512px" height="512px">
<g>
	<g>
		<path d="M313.152,150.102h-153.05c-5.523,0-10,4.477-10,10v42.002c0,5.523,4.477,10,10,10h153.05c5.522,0,10-4.477,10-10v-42.002    C323.152,154.579,318.674,150.102,313.152,150.102z M303.152,192.104h-133.05v-22.002h133.05V192.104z" fill="#FFFFFF"/>
	</g>
</g>
<g>
	<g>
		<path d="M167.177,238.119c-0.46-0.46-0.981-0.88-1.521-1.24c-0.549-0.36-1.129-0.67-1.729-0.92s-1.23-0.44-1.87-0.57    c-1.29-0.26-2.62-0.26-3.91,0c-0.64,0.13-1.269,0.32-1.87,0.57c-0.6,0.25-1.18,0.56-1.73,0.92c-0.54,0.36-1.049,0.78-1.52,1.24    c-1.86,1.86-2.93,4.44-2.93,7.07c0,0.65,0.07,1.31,0.2,1.96c0.13,0.63,0.319,1.26,0.569,1.87c0.25,0.6,0.561,1.18,0.921,1.72    c0.369,0.55,0.779,1.06,1.239,1.52c0.47,0.46,0.98,0.88,1.52,1.25c0.55,0.36,1.13,0.67,1.73,0.92c0.6,0.25,1.23,0.44,1.87,0.57    c0.65,0.13,1.3,0.19,1.96,0.19c0.65,0,1.299-0.06,1.952-0.19c0.64-0.13,1.269-0.32,1.87-0.57c0.599-0.25,1.179-0.56,1.729-0.92    c0.541-0.37,1.061-0.79,1.521-1.25s0.88-0.97,1.24-1.52c0.359-0.54,0.67-1.12,0.92-1.72c0.25-0.61,0.439-1.24,0.569-1.87    c0.131-0.65,0.2-1.31,0.2-1.96C170.107,242.559,169.037,239.979,167.177,238.119z" fill="#FFFFFF"/>
	</g>
</g>
<g>
	<g>
		<path d="M506.146,136.69c0,0-0.102-0.175-0.272-0.467c-2.243-3.852-5.133-7.297-8.535-10.178    c-0.001-0.001-0.002-0.001-0.002-0.001h0.001c-25.688-20.654-62.644-18.645-85.966,4.675l-30.821,30.822V88.746    c-0.001-8.347-2.1-16.624-6.072-23.94c-8.797-16.18-25.697-26.23-44.104-26.23H50.168c-23.979,0-44.688,17.061-49.239,40.545    C0.313,82.265,0,85.502,0,88.743c0,27.667,22.505,50.176,50.168,50.176h34.776v282.952c0,27.571,22.078,50.413,49.478,51.511    c0.301,0.027,0.605,0.042,0.913,0.042h262.984c23.979,0,44.688-17.061,49.239-40.544c0.616-3.145,0.929-6.382,0.929-9.622    c0-27.667-22.505-50.176-50.168-50.176H380.55v-50.264c9.089-4.039,16.607-10.163,25.286-18.843l46.376-46.376    c14.571-14.572,22.154-30.792,22.459-46.458l25.884-25.884C513.372,172.439,515.698,152.071,506.146,136.69z M417.532,152.844    l7.982-7.982c14.567-14.565,36.84-17.084,54.073-6.851l-62.055,62.055V152.844z M370.227,200.151l27.306-27.306v47.221h-0.001    l-27.31,27.31L370.227,200.151z M84.945,118.919H50.168c-16.635,0-30.167-13.536-30.167-30.175c0-1.952,0.187-3.896,0.56-5.796    c2.736-14.122,15.189-24.371,29.607-24.371h4.602c11.071,0,21.238,6.048,26.529,15.78c2.418,4.453,3.645,9.296,3.646,14.393    V118.919z M98.872,64.806c-1.192-2.193-2.533-4.272-4.007-6.23h235.509c11.072,0.001,21.239,6.048,26.53,15.779    c2.418,4.454,3.645,9.297,3.646,14.393v3.995H104.945v-3.997C104.944,80.397,102.845,72.121,98.872,64.806z M135.921,453.416    c-17.089-0.306-30.975-14.438-30.975-31.545V112.743h255.605v68.359c0,0.144,0.004,0.286,0.01,0.429l-38.116,38.116    c-5.086,5.086-8.884,10.199-11.709,15.543H193.007c-5.523,0-10,4.477-10,10s4.477,10,10,10h111.305    c-1.241,7.783-1.518,16.313-1.466,26H160.102c-5.523,0-10,4.477-10,10s4.477,10,10,10h143.075    c0.041,2.235,0.199,13.029,0.199,13.029l-12.971,12.971H160.102c-5.523,0-10,4.477-10,10s4.477,10,10,10h134.758    c3.518,0,6.611-1.817,8.393-4.563l13.799-13.799c0,0,37.793,0.019,43.497-0.715v44.964H135.338c-5.522,0-9.999,4.477-10,9.999    c-0.001,5.522,4.476,9.999,9.998,10.001c16.632,0.004,30.162,13.538,30.162,30.17    C165.498,439.686,152.283,453.096,135.921,453.416z M322.947,289.169c-0.526-28.899,0.099-41.837,13.638-55.378l13.637-13.636    l-0.005,47.225l-27.167,27.167C323.039,293.969,323.081,289.822,322.947,289.169z M398.319,393.082    c16.635-0.002,30.167,13.535,30.167,30.174c0,1.952-0.186,3.895-0.56,5.796c-2.736,14.121-15.189,24.371-29.607,24.371    l-222.93-0.001c6.344-8.402,10.109-18.856,10.109-30.17c0-11.315-3.766-21.768-10.109-30.17H398.319z M438.069,243.455    l-46.376,46.376c-15.626,15.625-24.311,19.866-54.964,19.324l113.944-113.945C462.171,215.674,446.061,235.464,438.069,243.455z     M486.412,171.113l-16.923,16.923c-1.224-2.491-2.666-4.932-4.328-7.313l26.597-26.597    C492.789,160.183,490.924,166.601,486.412,171.113z" fill="#FFFFFF"/>
	</g>
</g>
<g>
</g>
<g>
</g>
<g>
</g>
<g>
</g>
<g>
</g>
<g>
</g>
<g>
</g>
<g>
</g>
<g>
</g>
<g>
</g>
<g>
</g>
<g>
</g>
<g>
</g>
<g>
</g>
<g>
</g>
</svg>
