<?xml version="1.0" encoding="iso-8859-1"?>
<!-- Generator: Adobe Illustrator 19.0.0, SVG Export Plug-In . SVG Version: 6.00 Build 0)  -->
<svg xmlns="http://www.w3.org/2000/svg" xmlns:xlink="http://www.w3.org/1999/xlink" version="1.1" id="Capa_1" x="0px" y="0px" viewBox="0 0 511.786 511.786" style="enable-background:new 0 0 511.786 511.786;" xml:space="preserve" width="512px" height="512px">
<g transform="translate(-1)">
	<g>
		<g>
			<path d="M248.361,400.085l42.667,36.949V94.677c-12.56,10.484-27.057,18.399-42.667,23.296V400.085z" fill="#FFFFFF"/>
			<path d="M197.161,121.386v214.101c-0.072,12.768,5.447,24.928,15.104,33.28l19.029,16.469V121.642     C219.968,123.265,208.462,123.179,197.161,121.386z" fill="#FFFFFF"/>
			<path d="M339.582,58.239c-1.491-1.688-3.636-2.652-5.888-2.645c-2.09-0.042-4.102,0.793-5.547,2.304     c-3.755,3.925-7.168,7.509-10.581,11.264c-2.901,3.072-5.973,6.4-9.472,9.899v372.651c15.18,11.349,36.02,11.349,51.2,0V79.146     c-3.499-3.584-6.656-6.997-9.557-10.069C345.982,65.066,342.825,61.653,339.582,58.239z" fill="#FFFFFF"/>
			<path d="M436.094,121.642v263.68l19.029-16.469c9.631-8.408,15.142-20.58,15.104-33.365l0-214.101     C458.927,123.179,447.421,123.265,436.094,121.642z" fill="#FFFFFF"/>
			<path d="M503.337,69.93c-0.824-0.355-1.783-0.15-2.389,0.512c-18.632,16.313-44.156,22.294-68.096,15.957     c-24.064-5.803-40.533-21.845-58.112-40.619c-3.499-3.755-6.997-7.424-10.496-11.179c-8.448-8.789-18.603-17.749-30.549-17.749     c-11.947,0-22.101,8.96-30.549,17.749c-3.499,3.755-6.997,7.424-10.496,11.179c-17.579,18.773-34.048,34.816-58.027,40.619     c-23.953,6.333-49.488,0.388-68.181-15.872c-0.395-0.49-0.992-0.772-1.621-0.768c-0.263,0.016-0.523,0.073-0.768,0.171     c-0.668,0.247-1.088,0.912-1.024,1.621v263.936c-0.012,22.671,9.791,44.238,26.88,59.136l93.867,81.323     c28.552,25.087,71.288,25.087,99.84,0l93.867-81.408c17.101-14.853,26.909-36.4,26.88-59.051V71.551     C504.425,70.842,504.005,70.177,503.337,69.93z M487.294,335.487c0.001,17.723-7.651,34.583-20.992,46.251l-32.427,28.075     c-0.512,0.427-1.024,0.939-1.536,1.28l-58.283,50.603c-0.462,0.423-0.947,0.822-1.451,1.195l-0.171,0.171     c-22.164,19.455-55.319,19.455-77.483,0l-0.171-0.171c-0.504-0.373-0.988-0.771-1.451-1.195l-58.283-50.603     c-0.33-0.262-0.641-0.547-0.93-0.853c-0.154-0.137-0.307-0.247-0.444-0.393c-0.137-0.145-0.12-0.094-0.162-0.145l-0.085-0.085     l-32.341-27.989c-13.349-11.614-21.007-28.446-20.992-46.14V110.89c-0.013-2.646,1.22-5.143,3.328-6.741     c2.104-1.631,4.845-2.198,7.424-1.536c15.482,4.012,31.709,4.188,47.275,0.512c0.171,0,0.256-0.085,0.427-0.085     c20.838-5.954,39.697-17.388,54.613-33.109c0.171-0.171,0.256-0.341,0.427-0.512c4.267-4.181,8.107-8.277,11.52-11.947     c3.413-3.669,6.912-7.424,10.411-11.093c4.708-5.023,11.291-7.867,18.176-7.851c6.724-0.05,13.172,2.665,17.835,7.509     c3.669,3.84,6.912,7.339,10.155,10.837c3.669,3.925,7.765,8.277,12.203,12.715c0,0.085,0,0.085,0.085,0.085     c14.936,15.836,33.859,27.361,54.784,33.365c0.466,0.063,0.924,0.178,1.365,0.341c15.316,3.424,31.227,3.16,46.421-0.768     c2.579-0.676,5.325-0.107,7.424,1.536c2.108,1.598,3.341,4.096,3.328,6.741V335.487z" fill="#FFFFFF"/>
			<path d="M376.361,437.119l42.667-37.035V118.058c-15.624-4.907-30.124-12.853-42.667-23.381V437.119z" fill="#FFFFFF"/>
			<path d="M75.988,3.199C74.3,1.172,71.799,0,69.161,0s-5.139,1.172-6.827,3.199l-51.2,68.267c-1.197,1.626-1.8,3.615-1.707,5.632     l16.555,289.621h-8.021c-4.713,0-8.533,3.82-8.533,8.533s3.82,8.533,8.533,8.533h9.045l7.424,110.933h-7.936     c-4.713,0-8.533,3.82-8.533,8.533s3.82,8.533,8.533,8.533h17.067h51.2h17.067c4.713,0,8.533-3.82,8.533-8.533     s-3.82-8.533-8.533-8.533h-7.936l7.424-110.933h9.045c4.713,0,8.533-3.82,8.533-8.533s-3.821-8.533-8.533-8.533h-8.021     l16.555-289.621c0.093-2.017-0.509-4.006-1.707-5.632L75.988,3.199z M77.694,68.053v34.133c0,4.713-3.82,8.533-8.533,8.533     s-8.533-3.82-8.533-8.533V68.053c0-4.713,3.82-8.533,8.533-8.533S77.694,63.34,77.694,68.053z M60.628,272.853V136.319     c0-4.713,3.82-8.533,8.533-8.533s8.533,3.821,8.533,8.533v136.533c0,4.713-3.82,8.533-8.533,8.533S60.628,277.565,60.628,272.853     z M69.161,400.853h23.893l-1.195,17.067H69.161c-4.713,0-8.533-3.82-8.533-8.533S64.448,400.853,69.161,400.853z M69.161,443.519     c0-4.713,3.82-8.533,8.533-8.533H90.75l-1.195,17.067H77.694C72.982,452.053,69.161,448.232,69.161,443.519z" fill="#FFFFFF"/>
		</g>
	</g>
</g>
<g>
</g>
<g>
</g>
<g>
</g>
<g>
</g>
<g>
</g>
<g>
</g>
<g>
</g>
<g>
</g>
<g>
</g>
<g>
</g>
<g>
</g>
<g>
</g>
<g>
</g>
<g>
</g>
<g>
</g>
</svg>
