<?xml version="1.0"?>
<svg xmlns="http://www.w3.org/2000/svg" height="512px" viewBox="0 0 512 512" width="512px"><path d="m512 0-107.535156 1.664062-303.402344 321.925782-33.660156-33.660156-56.453125 56.453124 45.96875 45.96875-55.914063 55.914063-1.003906 62.792969 64.1875.734375 56.085938-56.085938 45.96875 45.96875 56.453124-56.453125-33.761718-33.761718 318.875-306.230469zm-460.074219 481.699219-21.5-.242188.328125-20.589843 47.339844-47.339844 21.003906 21.003906zm114.316407-22.375-112.941407-112.941407 14.101563-14.101562 112.941406 112.941406zm312.125-367.339844-310.613282 298.292969-12.117187-12.113282 65.667969-65.667968-21.175782-21.175782-65.667968 65.667969-12.210938-12.214843 295.332031-313.359376 63.234375-.976562zm0 0" fill="#FFFFFF"/></svg>
