<?xml version="1.0" encoding="iso-8859-1"?>
<!-- Generator: Adobe Illustrator 18.1.1, SVG Export Plug-In . SVG Version: 6.00 Build 0)  -->
<svg xmlns="http://www.w3.org/2000/svg" xmlns:xlink="http://www.w3.org/1999/xlink" version="1.1" id="Capa_1" x="0px" y="0px" viewBox="0 0 266.079 266.079" style="enable-background:new 0 0 266.079 266.079;" xml:space="preserve" width="512px" height="512px">
<g>
	<path d="M224.133,190.922l11.852-11.852c4.531-4.531,4.531-11.879,0-16.41   c-4.525-4.531-11.873-4.531-16.41,0l-2.279,2.284l-34.119-34.119l78.469-78.475l-11.069-39.063L211.509,2.214l-78.469,78.475   L54.554,2.208L15.49,13.271L4.417,52.346l78.486,78.48l-34.13,34.13l-2.279-2.279c-4.531-4.531-11.879-4.531-16.404,0   c-4.531,4.525-4.531,11.879,0,16.41l11.852,11.852L0,232.874l30.997,30.997l41.935-41.941l11.852,11.857   c4.531,4.531,11.879,4.531,16.41,0c4.531-4.525,4.531-11.879,0-16.41l-2.279-2.284l34.13-34.13l34.119,34.119l-2.279,2.279   c-4.531,4.531-4.531,11.884,0,16.41c4.525,4.531,11.873,4.531,16.41,0l11.852-11.852l41.93,41.935l31.003-30.992L224.133,190.922z    M216.029,19.575l22.017,6.244l6.244,22.017l-72.051,72.046l-28.261-28.256L216.029,19.575z M30.992,241.984l-9.116-9.116   l30.997-30.992l9.11,9.116L30.992,241.984z M87.971,204.155L59.71,175.899l34.13-34.136l28.261,28.256L87.971,204.155z    M178.102,204.139l-34.119-34.119l-10.938-10.938l-28.256-28.256l-10.938-10.943L21.783,47.826l6.244-22.017l22.012-6.239   l72.068,72.062l10.938,10.933l28.261,28.261l10.938,10.938l34.119,34.119L178.102,204.139z M204.079,210.976l9.121-9.11   l30.992,30.992l-9.116,9.121L204.079,210.976z" fill="#000000"/>
</g>
<g>
</g>
<g>
</g>
<g>
</g>
<g>
</g>
<g>
</g>
<g>
</g>
<g>
</g>
<g>
</g>
<g>
</g>
<g>
</g>
<g>
</g>
<g>
</g>
<g>
</g>
<g>
</g>
<g>
</g>
</svg>
