<?xml version="1.0" encoding="iso-8859-1"?>
<!-- Generator: Adobe Illustrator 18.0.0, SVG Export Plug-In . SVG Version: 6.00 Build 0)  -->
<!DOCTYPE svg PUBLIC "-//W3C//DTD SVG 1.1//EN" "http://www.w3.org/Graphics/SVG/1.1/DTD/svg11.dtd">
<svg xmlns="http://www.w3.org/2000/svg" xmlns:xlink="http://www.w3.org/1999/xlink" version="1.1" id="Capa_1" x="0px" y="0px" viewBox="0 0 298.228 298.228" style="enable-background:new 0 0 298.228 298.228;" xml:space="preserve" width="512px" height="512px">
<g>
	<path d="M240.504,93.933c0-6.509-4.505-12.151-10.851-13.592L159.421,64.39V51.209c25.601,1.466,51.202-12.042,76.803-17.755   c5.652-1.262,5.247-9.469-0.505-10.145c-25.433-2.988-50.865,1.567-76.298-8.654V10c0-5.523-4.478-10-10-10   c-5.523,0-10,4.477-10,10v54.359L69.055,80.34c-6.347,1.441-10.852,7.084-10.852,13.592v9.574h182.3V93.933z" fill="#FFFFFF"/>
	<path d="M240.025,122.263H58.203c0,75.619-25.031,131.165-40.277,157.984c-4.561,8.023,1.197,17.981,10.426,17.981h72.112   c3.98,0,7.709-1.962,9.936-5.26c10.564-15.646,30.046-50.097,36.704-99.162c0.317-2.339,3.701-2.339,4.018,0   c6.658,49.065,26.14,83.516,36.704,99.162c2.227,3.299,5.956,5.26,9.936,5.26h72.112c9.229,0,14.987-9.958,10.426-17.981   C265.056,253.428,240.025,197.883,240.025,122.263z" fill="#FFFFFF"/>
</g>
<g>
</g>
<g>
</g>
<g>
</g>
<g>
</g>
<g>
</g>
<g>
</g>
<g>
</g>
<g>
</g>
<g>
</g>
<g>
</g>
<g>
</g>
<g>
</g>
<g>
</g>
<g>
</g>
<g>
</g>
</svg>
